<?xml version="1.0" encoding="utf-8"?>
<!-- Generator: Adobe Illustrator 22.1.0, SVG Export Plug-In . SVG Version: 6.00 Build 0)  -->
<svg version="1.1" id="Katenna_Bot_1_" xmlns="http://www.w3.org/2000/svg" xmlns:xlink="http://www.w3.org/1999/xlink" x="0px"
	 y="0px" viewBox="0 0 324 324" style="enable-background:new 0 0 324 324;" xml:space="preserve">
<style type="text/css">
	.st0{fill:#F6C501;}
	.st1{fill:#DDB101;}
	.st2{fill:#D0D2D3;}
	.st3{fill:#B6B8BB;}
	.st4{fill:#E6E7E8;}
	.st5{fill:#BBBDBF;}
	.st6{fill:#A6A8AB;}
</style>
<circle id="Circle_Background" class="st0" cx="162" cy="162" r="162"/>
<path class="st1" d="M234.3,78.9L113,226.4l91.9,91.9c66.7-18.3,116.2-78,119-149.8L234.3,78.9"/>
<g id="Katenna_Bot">
	<g id="Ears">
		<g id="Left_Ear">
			<path class="st2" d="M103.4,157.3c3.7-2.8,7.3-5.6,10.9-8.5c7.1-5.7,23-12.9,30.2-18.5c-9.8-33.5-54.6-51.5-54.6-51.5
				s-16.6,26.9-7.1,60.7c2.5,8.9,6.7,17.1,11.6,24.4C97.4,161.6,100.4,159.5,103.4,157.3z"/>
			<path class="st3" d="M95.9,156.2c-3.6-6.1-6.2-12.2-7.9-18.2c-6.7-23.8,0.5-44,4.4-52.4c10.5,5.1,37.1,19.9,45.9,42.5
				c-3.1,2-7.1,4.3-11.1,6.4c-6,3.3-12.2,6.8-16.2,10c-3.4,2.7-6.9,5.5-10.8,8.5C98.8,154.1,97.4,155.2,95.9,156.2z"/>
		</g>
		<g id="Right_Ear">
			<path class="st2" d="M220.4,157.3c-3.6-2.8-7.3-5.7-10.8-8.6c-7.1-5.8-23-13-30.1-18.7c9.9-33.4,54.9-51.2,54.9-51.2
				s16.4,27,6.7,60.8c-2.6,8.9-6.8,17.1-11.7,24.3C226.4,161.7,223.3,159.6,220.4,157.3z"/>
			<path class="st3" d="M227.9,156.3c-1.5-1.1-2.9-2.1-4.2-3.1c-3.9-3-7.4-5.8-10.8-8.5c-4-3.2-10.2-6.7-16.1-10.1
				c-3.9-2.2-7.9-4.5-11-6.5c8.9-22.6,35.5-37.2,46.1-42.3c1.3,2.9,3,7.2,4.4,12.5c3.5,13.5,3.4,26.9-0.3,39.9
				C234.2,144.2,231.5,150.3,227.9,156.3z"/>
		</g>
	</g>
	<g>
		<path class="st4" d="M89,172.2c0,40.3,32.7,73.1,73,73.1V99.1C121.7,99.1,89,131.8,89,172.2z"/>
		<path class="st5" d="M162.6,245.2c40.1-0.3,72.5-32.9,72.5-73.1c0-40.1-32.4-72.8-72.5-73.1H162c0,0,0,0,0,0v146.1c0,0,0,0,0,0
			H162.6z"/>
	</g>
	<g>
		
			<rect x="102.2" y="164.9" transform="matrix(0.2133 -0.977 0.977 0.2133 -110.9176 255.0072)" class="st6" width="1.4" height="62.9"/>
		<polygon class="st6" points="72.2,217.6 72.1,216.3 131.5,209 131.7,210.4 		"/>
		<polygon class="st6" points="79.8,241.8 79.3,240.6 131.3,216.3 131.9,217.5 		"/>
	</g>
	<g>
		
			<rect x="189.7" y="195.7" transform="matrix(0.9766 -0.2151 0.2151 0.9766 -37.0677 52.1656)" class="st6" width="62.9" height="1.4"/>
		
			<rect x="221.4" y="183.4" transform="matrix(0.1206 -0.9927 0.9927 0.1206 -16.4263 408.0898)" class="st6" width="1.4" height="59.9"/>
		
			<rect x="217.7" y="200.4" transform="matrix(0.4228 -0.9062 0.9062 0.4228 -81.5171 330.1492)" class="st6" width="1.4" height="57.4"/>
	</g>
	<path d="M172.8,195.5l-7.6,7.6c-0.9,0.9-2.2,1.4-3.4,1.3c-1-0.1-2.1-0.5-2.9-1.3l-7.6-7.6c-1.7-1.8-1.7-4.6,0-6.3h21.5
		C174.5,190.9,174.5,193.7,172.8,195.5z"/>
	<path d="M221.8,142.4H102.2c-11.8,0-21.3,9.5-21.3,21.3c0,11.8,9.6,21.3,21.3,21.3h119.7c11.8,0,21.3-9.6,21.3-21.3
		C243.2,152,233.6,142.4,221.8,142.4z"/>
</g>
</svg>
