<?xml version="1.0" encoding="utf-8"?>
<!-- Generator: Adobe Illustrator 22.1.0, SVG Export Plug-In . SVG Version: 6.00 Build 0)  -->
<svg version="1.1" id="Katenna_Bot_1_" xmlns="http://www.w3.org/2000/svg" xmlns:xlink="http://www.w3.org/1999/xlink" x="0px"
	 y="0px" viewBox="0 0 360 360" style="enable-background:new 0 0 360 360;" xml:space="preserve">
<style type="text/css">
	.st0{fill:#F6C501;}
	.st1{fill:#DDB101;}
	.st2{opacity:0.1;}
	.st3{fill:#D0D2D3;}
	.st4{fill:#B6B8BB;}
	.st5{fill:#E6E7E8;}
	.st6{fill:#BBBDBF;}
	.st7{fill:#A6A8AB;}
</style>
<rect id="Square_Background" class="st0" width="360" height="360"/>
<polyline class="st1" points="252.3,96.9 131,244.4 246.6,360 360,360 360,204.6 252.3,96.9 "/>
<polyline id="Shadow_1_" class="st2" points="252.3,96.9 131,244.4 246.6,360 360,360 360,204.6 252.3,96.9 "/>
<g id="Katenna_Bot">
	<g id="Ears">
		<g id="Left_Ear">
			<path class="st3" d="M121.4,175.3c3.7-2.8,7.3-5.6,10.9-8.5c7.1-5.7,23-12.9,30.2-18.5c-9.8-33.5-54.6-51.5-54.6-51.5
				s-16.6,26.9-7.1,60.7c2.5,8.9,6.7,17.1,11.6,24.4C115.4,179.6,118.4,177.5,121.4,175.3z"/>
			<path class="st4" d="M113.9,174.2c-3.6-6.1-6.2-12.2-7.9-18.2c-6.7-23.8,0.5-44,4.4-52.4c10.5,5.1,37.1,19.9,45.9,42.5
				c-3.1,2-7.1,4.3-11.1,6.4c-6,3.3-12.2,6.8-16.2,10c-3.4,2.7-6.9,5.5-10.8,8.5C116.8,172.1,115.4,173.2,113.9,174.2z"/>
		</g>
		<g id="Right_Ear">
			<path class="st3" d="M238.4,175.3c-3.6-2.8-7.3-5.7-10.8-8.6c-7.1-5.8-23-13-30.1-18.7c9.9-33.4,54.9-51.2,54.9-51.2
				s16.4,27,6.7,60.8c-2.6,8.9-6.8,17.1-11.7,24.3C244.4,179.7,241.3,177.6,238.4,175.3z"/>
			<path class="st4" d="M245.9,174.3c-1.5-1.1-2.9-2.1-4.2-3.1c-3.9-3-7.4-5.8-10.8-8.5c-4-3.2-10.2-6.7-16.1-10.1
				c-3.9-2.2-7.9-4.5-11-6.5c8.9-22.6,35.5-37.2,46.1-42.3c1.3,2.9,3,7.2,4.4,12.5c3.5,13.5,3.4,26.9-0.3,39.9
				C252.2,162.2,249.5,168.3,245.9,174.3z"/>
		</g>
	</g>
	<g>
		<path class="st5" d="M107,190.2c0,40.3,32.7,73.1,73,73.1V117.1C139.7,117.1,107,149.8,107,190.2z"/>
		<path class="st6" d="M180.6,263.2c40.1-0.3,72.5-32.9,72.5-73.1c0-40.1-32.4-72.8-72.5-73.1H180c0,0,0,0,0,0v146.1c0,0,0,0,0,0
			H180.6z"/>
	</g>
	<g>
		
			<rect x="120.2" y="182.9" transform="matrix(0.2133 -0.977 0.977 0.2133 -114.3423 286.7543)" class="st7" width="1.4" height="62.9"/>
		<polygon class="st7" points="90.2,235.6 90.1,234.3 149.5,227 149.7,228.4 		"/>
		<polygon class="st7" points="97.8,259.8 97.3,258.6 149.3,234.3 149.9,235.5 		"/>
	</g>
	<g>
		
			<rect x="207.7" y="213.7" transform="matrix(0.9766 -0.2151 0.2151 0.9766 -40.5185 56.4592)" class="st7" width="62.9" height="1.4"/>
		
			<rect x="239.4" y="201.4" transform="matrix(0.1206 -0.9927 0.9927 0.1206 -18.4663 441.7868)" class="st7" width="1.4" height="59.9"/>
		
			<rect x="235.7" y="218.4" transform="matrix(0.4228 -0.9062 0.9062 0.4228 -87.4399 356.8499)" class="st7" width="1.4" height="57.4"/>
	</g>
	<path d="M190.8,213.5l-7.6,7.6c-0.9,0.9-2.2,1.4-3.4,1.3c-1-0.1-2.1-0.5-2.9-1.3l-7.6-7.6c-1.7-1.8-1.7-4.6,0-6.3h21.5
		C192.5,208.9,192.5,211.7,190.8,213.5z"/>
	<path d="M239.8,160.4H120.2c-11.8,0-21.3,9.5-21.3,21.3c0,11.8,9.6,21.3,21.3,21.3h119.7c11.8,0,21.3-9.6,21.3-21.3
		C261.2,170,251.6,160.4,239.8,160.4z"/>
</g>
</svg>
