<?xml version="1.0" encoding="utf-8"?>
<!-- Generator: Adobe Illustrator 22.1.0, SVG Export Plug-In . SVG Version: 6.00 Build 0)  -->
<svg version="1.1" id="KATENNA" xmlns="http://www.w3.org/2000/svg" xmlns:xlink="http://www.w3.org/1999/xlink" x="0px" y="0px"
	 viewBox="0 0 32 32" style="enable-background:new 0 0 32 32;" xml:space="preserve">
<path id="K" d="M17.7,20c0,0-1.5-1.4-2.4-2.3c-0.1-0.1-0.5-0.5-0.5-0.5c0,0.8,0,2,0,2.5h-1.9c0-0.9,0-6.6,0-7.5h1.9
	c0,0.6,0,1.7,0,2.5c0,0,0.3-0.3,0.5-0.5c0.9-0.9,2.4-2.2,2.4-2.2l1.4,1.2L16,16l3.1,2.7L17.7,20z"/>
<path id="Border" d="M30.3,1.7v28.5H1.7V1.7H30.3 M32,0H0v32h32V0L32,0z"/>
</svg>
